<svg width="33" height="33" viewBox="0 0 33 33" fill="none" xmlns="http://www.w3.org/2000/svg">
<path d="M26.0277 4.06396H7.361C5.89434 4.06396 4.69434 5.26396 4.69434 6.73063V25.3973C4.69434 26.864 5.89434 28.064 7.361 28.064H26.0277C27.4943 28.064 28.6943 26.864 28.6943 25.3973V6.73063C28.6943 5.26396 27.4943 4.06396 26.0277 4.06396ZM26.0277 25.3973H7.361V6.73063H26.0277V25.3973Z" fill="white"/>
<path d="M15.6945 10.3573H9.02783V12.3573H15.6945V10.3573Z" fill="white"/>
<path d="M24.6945 21.064H18.0278V23.064H24.6945V21.064Z" fill="white"/>
<path d="M24.6945 17.7306H18.0278V19.7306H24.6945V17.7306Z" fill="white"/>
<path d="M11.361 24.064H13.361V21.3973H16.0277V19.3973H13.361V16.7306H11.361V19.3973H8.69434V21.3973H11.361V24.064Z" fill="white"/>
<path d="M19.4812 14.664L21.3612 12.784L23.2412 14.664L24.6545 13.2506L22.7745 11.3573L24.6545 9.4773L23.2412 8.06396L21.3612 9.94396L19.4812 8.06396L18.0679 9.4773L19.9479 11.3573L18.0679 13.2506L19.4812 14.664Z" fill="white"/>
</svg>
