<svg width="166" height="18" viewBox="0 0 166 18" fill="none" xmlns="http://www.w3.org/2000/svg">
<path d="M3.50817 12.5605V9.38055H5.72817C7.32417 9.38055 8.23617 8.27655 8.23617 6.96855C8.23617 5.66055 7.33617 4.55655 5.72817 4.55655H2.51217V12.5605H3.50817ZM5.60817 8.49255H3.50817V5.44455H5.60817C6.55617 5.44455 7.20417 6.06855 7.20417 6.96855C7.20417 7.86855 6.55617 8.49255 5.60817 8.49255ZM11.8988 12.7045C13.6628 12.7045 14.7668 11.3365 14.7668 9.65655C14.7668 7.97655 13.6628 6.62055 11.8988 6.62055C10.1348 6.62055 9.0308 7.97655 9.0308 9.65655C9.0308 11.3365 10.1348 12.7045 11.8988 12.7045ZM11.8988 11.9005C10.6628 11.9005 9.9788 10.8445 9.9788 9.65655C9.9788 8.48055 10.6628 7.42455 11.8988 7.42455C13.1348 7.42455 13.8188 8.48055 13.8188 9.65655C13.8188 10.8445 13.1348 11.9005 11.8988 11.9005ZM22.162 12.5605L24.01 6.76455H23.062L21.646 11.3845L20.134 6.76455H19.354L17.83 11.3845L16.414 6.76455H15.478L17.326 12.5605H18.226L19.738 7.90455L21.25 12.5605H22.162ZM27.6745 12.7045C28.6105 12.7045 29.3905 12.3805 29.9785 11.8045L29.5465 11.2165C29.0785 11.6965 28.4185 11.9605 27.7465 11.9605C26.4985 11.9605 25.7425 11.0485 25.6705 9.95655H30.3505V9.72855C30.3505 7.98855 29.3185 6.62055 27.5665 6.62055C25.9105 6.62055 24.7105 7.97655 24.7105 9.65655C24.7105 11.4685 25.9465 12.7045 27.6745 12.7045ZM29.4625 9.28455H25.6585C25.7065 8.40855 26.3185 7.36455 27.5545 7.36455C28.8745 7.36455 29.4505 8.43255 29.4625 9.28455ZM32.7082 12.5605V8.45655C32.9722 7.98855 33.7282 7.53255 34.2922 7.53255C34.4242 7.53255 34.5322 7.54455 34.6402 7.55655V6.63255C33.8482 6.63255 33.1762 7.08855 32.7082 7.68855V6.76455H31.8082V12.5605H32.7082ZM38.3971 12.7045C39.3331 12.7045 40.1131 12.3805 40.7011 11.8045L40.2691 11.2165C39.8011 11.6965 39.1411 11.9605 38.4691 11.9605C37.2211 11.9605 36.4651 11.0485 36.3931 9.95655H41.0731V9.72855C41.0731 7.98855 40.0411 6.62055 38.2891 6.62055C36.6331 6.62055 35.4331 7.97655 35.4331 9.65655C35.4331 11.4685 36.6691 12.7045 38.3971 12.7045ZM40.1851 9.28455H36.3811C36.4291 8.40855 37.0411 7.36455 38.2771 7.36455C39.5971 7.36455 40.1731 8.43255 40.1851 9.28455ZM47.6309 12.5605V4.55655H46.7309V7.64055C46.2629 7.00455 45.5549 6.62055 44.7749 6.62055C43.2629 6.62055 42.1949 7.80855 42.1949 9.66855C42.1949 11.5525 43.2629 12.7045 44.7749 12.7045C45.5909 12.7045 46.2989 12.2845 46.7309 11.6965V12.5605H47.6309ZM45.0029 11.9005C43.8269 11.9005 43.1309 10.9525 43.1309 9.66855C43.1309 8.38455 43.8269 7.42455 45.0029 7.42455C45.7109 7.42455 46.4189 7.85655 46.7309 8.36055V10.9765C46.4189 11.4805 45.7109 11.9005 45.0029 11.9005ZM53.4387 10.9885V8.36055C53.7507 7.85655 54.4587 7.42455 55.1787 7.42455C56.3427 7.42455 57.0387 8.38455 57.0387 9.66855C57.0387 10.9525 56.3427 11.9005 55.1787 11.9005C54.4587 11.9005 53.7507 11.4925 53.4387 10.9885ZM53.4387 12.5605V11.6965C53.8707 12.2845 54.5787 12.7045 55.3947 12.7045C56.9067 12.7045 57.9747 11.5525 57.9747 9.66855C57.9747 7.80855 56.9187 6.62055 55.3947 6.62055C54.6147 6.62055 53.9067 7.00455 53.4387 7.64055V4.55655H52.5387V12.5605H53.4387ZM59.129 14.8285C59.285 14.8765 59.585 14.9125 59.777 14.9125C60.545 14.9005 61.133 14.5765 61.481 13.7365L64.385 6.76455H63.413L61.481 11.5165L59.561 6.76455H58.577L61.001 12.6205L60.617 13.4965C60.413 13.9765 60.149 14.1085 59.753 14.1085C59.609 14.1085 59.393 14.0725 59.261 14.0125L59.129 14.8285Z" fill="#1F2937"/>
<path d="M93.7232 13.3262H92.3574V12.6092H95.8807V13.3262H94.5149V17.0628H93.7232V13.3262Z" fill="#04676A"/>
<path d="M96.2695 12.6092H97.8178C98.0312 12.6092 98.2379 12.629 98.4381 12.6686C98.6382 12.7082 98.8141 12.7763 98.9703 12.8731C99.1264 12.9699 99.2496 13.0996 99.342 13.2624C99.4343 13.4251 99.4805 13.6341 99.4805 13.8848C99.4805 14.2081 99.3904 14.4786 99.2122 14.6963C99.0341 14.9141 98.7789 15.046 98.4468 15.0922L99.6301 17.0606H98.6734L97.6419 15.1736H97.0635V17.0606H96.2717V12.6092H96.2695ZM97.6793 14.4962C97.7937 14.4962 97.9058 14.4918 98.018 14.4808C98.1301 14.4698 98.2357 14.4456 98.3303 14.406C98.4249 14.3664 98.5018 14.3049 98.559 14.2235C98.6184 14.1421 98.647 14.0277 98.647 13.8804C98.647 13.7506 98.6206 13.6451 98.5656 13.5659C98.5106 13.4867 98.4403 13.4273 98.3523 13.3855C98.2643 13.346 98.1675 13.3196 98.0598 13.3064C97.952 13.2932 97.8486 13.2866 97.7475 13.2866H97.0613V14.494H97.6793V14.4962Z" fill="#04676A"/>
<path d="M101.693 12.6092H102.379L104.299 17.0628H103.393L102.978 16.0445H101.047L100.644 17.0628H99.7578L101.693 12.6092ZM102.7 15.3649L102.014 13.5527L101.315 15.3649H102.7Z" fill="#04676A"/>
<path d="M103.627 12.6092H104.54L105.754 15.9741L107.005 12.6092H107.861L106.062 17.0628H105.375L103.627 12.6092Z" fill="#04676A"/>
<path d="M108.225 12.6092H111.176V13.3262H109.019V14.4214H111.064V15.1384H109.019V16.3458H111.288V17.0628H108.225V12.6092Z" fill="#04676A"/>
<path d="M111.918 12.6092H112.71V16.3458H114.604V17.0628H111.916V12.6092H111.918Z" fill="#04676A"/>
<path d="M116.982 12.6092H117.774V17.0628H116.982V12.6092Z" fill="#04676A"/>
<path d="M118.535 12.6092H119.586L121.744 15.9192H121.757V12.6092H122.549V17.0628H121.542L119.34 13.6473H119.327V17.0628H118.535V12.6092Z" fill="#04676A"/>
<path d="M124.307 13.3262H122.941V12.6092H126.465V13.3262H125.099V17.0628H124.307V13.3262Z" fill="#04676A"/>
<path d="M126.854 12.6092H129.805V13.3262H127.647V14.4214H129.693V15.1384H127.647V16.3458H129.919V17.0628H126.856V12.6092H126.854Z" fill="#04676A"/>
<path d="M130.547 12.6092H132.095C132.309 12.6092 132.515 12.629 132.715 12.6686C132.916 12.7082 133.091 12.7763 133.248 12.8731C133.404 12.9699 133.527 13.0996 133.619 13.2624C133.712 13.4251 133.758 13.6341 133.758 13.8848C133.758 14.2081 133.668 14.4786 133.49 14.6963C133.311 14.9141 133.056 15.046 132.724 15.0922L133.907 17.0606H132.951L131.919 15.1736H131.341V17.0606H130.549V12.6092H130.547ZM131.957 14.4962C132.069 14.4962 132.183 14.4918 132.295 14.4808C132.407 14.4698 132.513 14.4456 132.608 14.406C132.702 14.3664 132.779 14.3049 132.836 14.2235C132.896 14.1421 132.924 14.0277 132.924 13.8804C132.924 13.7506 132.898 13.6451 132.843 13.5659C132.788 13.4867 132.718 13.4273 132.63 13.3855C132.542 13.346 132.445 13.3196 132.337 13.3064C132.229 13.2932 132.126 13.2866 132.025 13.2866H131.339V14.494H131.957V14.4962Z" fill="#04676A"/>
<path d="M134.359 12.6092H135.411L137.568 15.9192H137.581V12.6092H138.373V17.0628H137.366L135.164 13.6473H135.151V17.0628H134.359V12.6092Z" fill="#04676A"/>
<path d="M140.658 12.6092H141.344L143.262 17.0628H142.356L141.94 16.0445H140.009L139.607 17.0628H138.721L140.658 12.6092ZM141.663 15.3649L140.977 13.5527L140.278 15.3649H141.663Z" fill="#04676A"/>
<path d="M144.137 13.3262H142.771V12.6092H146.295V13.3262H144.929V17.0628H144.137V13.3262Z" fill="#04676A"/>
<path d="M146.686 12.6092H147.477V17.0628H146.686V12.6092Z" fill="#04676A"/>
<path d="M148.064 14.8547C148.064 14.4984 148.124 14.1751 148.24 13.8826C148.357 13.5901 148.52 13.3416 148.729 13.137C148.935 12.9325 149.184 12.7741 149.472 12.662C149.76 12.5498 150.075 12.4948 150.42 12.4948C150.767 12.4904 151.086 12.541 151.377 12.6488C151.667 12.7565 151.915 12.9127 152.124 13.1172C152.333 13.324 152.498 13.5703 152.615 13.8606C152.731 14.1509 152.791 14.472 152.791 14.8305C152.791 15.178 152.731 15.4947 152.615 15.7806C152.498 16.0665 152.333 16.3106 152.124 16.5174C151.915 16.7219 151.665 16.8825 151.377 16.999C151.086 17.1134 150.767 17.175 150.42 17.1794C150.077 17.1794 149.76 17.1244 149.472 17.0122C149.184 16.9001 148.938 16.7439 148.729 16.5394C148.522 16.337 148.359 16.0907 148.24 15.807C148.122 15.5189 148.064 15.2022 148.064 14.8547ZM148.894 14.8041C148.894 15.0438 148.931 15.2638 149.004 15.4639C149.076 15.6662 149.182 15.84 149.316 15.9851C149.45 16.1325 149.611 16.2469 149.798 16.3304C149.984 16.414 150.193 16.4558 150.424 16.4558C150.655 16.4558 150.864 16.414 151.053 16.3304C151.242 16.2469 151.403 16.1303 151.537 15.9851C151.671 15.8378 151.775 15.664 151.849 15.4639C151.922 15.2616 151.959 15.0416 151.959 14.8041C151.959 14.582 151.922 14.3752 151.849 14.1817C151.777 13.9882 151.671 13.8188 151.537 13.6759C151.403 13.5307 151.242 13.4185 151.053 13.3372C150.864 13.2558 150.655 13.214 150.424 13.214C150.193 13.214 149.984 13.2558 149.798 13.3372C149.611 13.4185 149.45 13.5329 149.316 13.6759C149.182 13.821 149.078 13.9904 149.004 14.1817C148.931 14.3752 148.894 14.582 148.894 14.8041Z" fill="#04676A"/>
<path d="M153.393 12.6092H154.444L156.601 15.9192H156.615V12.6092H157.406V17.0628H156.399L154.198 13.6473H154.184V17.0628H153.393V12.6092Z" fill="#04676A"/>
<path d="M159.69 12.6092H160.376L162.294 17.0628H161.387L160.972 16.0445H159.041L158.638 17.0628H157.752L159.69 12.6092ZM160.697 15.3649L160.011 13.5527L159.311 15.3649H160.697Z" fill="#04676A"/>
<path d="M162.641 12.6092H163.433V16.3458H165.326V17.0628H162.639V12.6092H162.641Z" fill="#04676A"/>
<path d="M96.856 4.79286C96.7042 4.57073 96.4997 4.40798 96.2446 4.30681C95.9895 4.20344 95.7212 4.15286 95.4396 4.15286C95.2725 4.15286 95.1097 4.17265 94.9536 4.21004C94.7974 4.24743 94.6567 4.30901 94.5313 4.39258C94.406 4.47616 94.3048 4.58612 94.2278 4.71808C94.1508 4.85224 94.1135 5.01059 94.1135 5.19313C94.1135 5.46804 94.208 5.67918 94.3994 5.82213C94.5885 5.96729 94.826 6.09265 95.1075 6.20041C95.3891 6.30818 95.697 6.41155 96.0335 6.51052C96.3677 6.60949 96.6757 6.74804 96.9594 6.92399C97.2409 7.09993 97.4762 7.33306 97.6675 7.62337C97.8567 7.91368 97.9535 8.29856 97.9535 8.78021C97.9535 9.21567 97.8743 9.59615 97.7137 9.91945C97.5532 10.2449 97.3376 10.5133 97.0693 10.7266C96.7988 10.9399 96.4843 11.1005 96.128 11.2082C95.7695 11.316 95.3935 11.3688 94.9976 11.3688C94.4961 11.3688 94.0123 11.2852 93.5482 11.1159C93.0842 10.9487 92.6839 10.665 92.3496 10.2691L93.4339 9.21567C93.6098 9.48398 93.8385 9.69072 94.1245 9.84027C94.4104 9.98983 94.7117 10.0646 95.0328 10.0646C95.1999 10.0646 95.3671 10.0426 95.5342 9.99642C95.7014 9.95024 95.8531 9.88206 95.9917 9.78969C96.128 9.69732 96.238 9.58075 96.3238 9.44C96.4073 9.29924 96.4491 9.13649 96.4491 8.95395C96.4491 8.65704 96.3546 8.42612 96.1632 8.26557C95.9719 8.10502 95.7365 7.96866 95.455 7.85869C95.1735 7.74873 94.8656 7.64316 94.5291 7.54419C94.1948 7.44522 93.8869 7.30887 93.6032 7.13732C93.3217 6.96577 93.0864 6.73705 92.895 6.44894C92.7037 6.16303 92.6091 5.77815 92.6091 5.2987C92.6091 4.87863 92.6949 4.51574 92.8664 4.21004C93.038 3.90433 93.2623 3.65141 93.5394 3.44908C93.8166 3.24674 94.1354 3.09499 94.4917 2.99602C94.8502 2.89705 95.2153 2.84647 95.587 2.84647C96.0137 2.84647 96.4271 2.91245 96.8252 3.0422C97.2255 3.17196 97.584 3.3853 97.9051 3.6844L96.856 4.79286Z" fill="#04676A"/>
<path d="M105.613 8.18419C105.613 8.67243 105.53 9.11449 105.363 9.50817C105.195 9.90185 104.967 10.2361 104.679 10.5111C104.388 10.786 104.047 10.9971 103.651 11.1467C103.256 11.2962 102.825 11.371 102.36 11.371C101.896 11.371 101.465 11.2962 101.069 11.1467C100.674 10.9971 100.328 10.786 100.036 10.5111C99.7433 10.2361 99.5145 9.90185 99.3518 9.50817C99.189 9.11449 99.1055 8.67463 99.1055 8.18419V3.05099H100.544V8.138C100.544 8.33594 100.575 8.54487 100.636 8.7626C100.698 8.98034 100.797 9.18047 100.94 9.36302C101.08 9.54556 101.267 9.69731 101.498 9.81607C101.731 9.93484 102.017 9.99422 102.36 9.99422C102.704 9.99422 102.989 9.93484 103.223 9.81607C103.456 9.69731 103.64 9.54776 103.781 9.36302C103.922 9.18047 104.023 8.97814 104.085 8.7626C104.146 8.54487 104.177 8.33594 104.177 8.138V3.05099H105.615V8.18419H105.613Z" fill="#04676A"/>
<path d="M111.038 4.79286C110.886 4.57073 110.681 4.40798 110.426 4.30681C110.171 4.20344 109.903 4.15286 109.621 4.15286C109.454 4.15286 109.291 4.17265 109.135 4.21004C108.979 4.24743 108.838 4.30901 108.713 4.39258C108.588 4.47616 108.486 4.58612 108.409 4.71808C108.332 4.85224 108.295 5.01059 108.295 5.19313C108.295 5.46804 108.39 5.67918 108.581 5.82213C108.77 5.96729 109.008 6.09265 109.289 6.20041C109.571 6.30818 109.879 6.41155 110.215 6.51052C110.549 6.60949 110.857 6.74804 111.141 6.92399C111.423 7.09993 111.658 7.33306 111.849 7.62337C112.041 7.91368 112.135 8.29856 112.135 8.78021C112.135 9.21567 112.056 9.59615 111.895 9.91945C111.735 10.2449 111.519 10.5133 111.251 10.7266C110.98 10.9399 110.666 11.1005 110.31 11.2082C109.951 11.316 109.575 11.3688 109.179 11.3688C108.678 11.3688 108.194 11.2852 107.73 11.1159C107.266 10.9487 106.866 10.665 106.531 10.2691L107.616 9.21567C107.791 9.48398 108.02 9.69072 108.306 9.84027C108.592 9.98983 108.893 10.0646 109.214 10.0646C109.382 10.0646 109.549 10.0426 109.716 9.99642C109.883 9.95024 110.035 9.88206 110.173 9.78969C110.31 9.69732 110.42 9.58075 110.505 9.44C110.589 9.29924 110.631 9.13649 110.631 8.95395C110.631 8.65704 110.536 8.42612 110.345 8.26557C110.154 8.10502 109.918 7.96866 109.637 7.85869C109.355 7.74873 109.047 7.64316 108.711 7.54419C108.376 7.44522 108.069 7.30887 107.787 7.13732C107.506 6.96577 107.27 6.73705 107.079 6.44894C106.888 6.16303 106.793 5.77815 106.793 5.2987C106.793 4.87863 106.879 4.51574 107.05 4.21004C107.222 3.90433 107.446 3.65141 107.723 3.44908C108 3.24674 108.319 3.09499 108.676 2.99602C109.034 2.89705 109.399 2.84647 109.771 2.84647C110.198 2.84647 110.611 2.91245 111.009 3.0422C111.409 3.17196 111.768 3.3853 112.089 3.6844L111.038 4.79286Z" fill="#04676A"/>
<path d="M115.295 4.35739H112.816V3.05099H119.21V4.35739H116.731V11.1621H115.293V4.35739H115.295Z" fill="#04676A"/>
<path d="M122.202 3.05099H123.447L126.929 11.1621H125.284L124.529 9.30583H121.024L120.293 11.1621H118.684L122.202 3.05099ZM124.03 8.06982L122.785 4.77086L121.519 8.06982H124.03Z" fill="#04676A"/>
<path d="M127.488 3.05099H128.927V11.1621H127.488V3.05099Z" fill="#04676A"/>
<path d="M130.389 3.05099H132.295L136.212 9.0771H136.234V3.05099H137.673V11.1621H135.845L131.849 4.9424H131.827V11.1621H130.389V3.05099Z" fill="#04676A"/>
<path d="M141.785 3.05099H143.029L146.511 11.1621H144.866L144.111 9.30583H140.606L139.876 11.1621H138.266L141.785 3.05099ZM143.612 8.06982L142.367 4.77086L141.101 8.06982H143.612Z" fill="#04676A"/>
<path d="M147.104 3.05099H150.255C150.559 3.05099 150.86 3.08838 151.157 3.16096C151.454 3.23354 151.718 3.3523 151.951 3.51505C152.184 3.68 152.371 3.89113 152.516 4.15065C152.661 4.41017 152.734 4.72247 152.734 5.08976C152.734 5.54721 152.604 5.92549 152.347 6.2246C152.087 6.52151 151.748 6.73704 151.331 6.8668V6.88879C151.581 6.91958 151.817 6.98996 152.032 7.09993C152.25 7.20989 152.435 7.35285 152.586 7.52439C152.738 7.69594 152.859 7.89388 152.947 8.12041C153.035 8.34473 153.079 8.58886 153.079 8.84838C153.079 9.29044 152.991 9.65992 152.817 9.95463C152.641 10.2493 152.413 10.4847 152.127 10.665C151.841 10.8454 151.513 10.9729 151.146 11.0499C150.776 11.1269 150.402 11.1643 150.022 11.1643H147.11V3.05099H147.104ZM148.542 6.34996H149.855C150.334 6.34996 150.695 6.25759 150.935 6.06845C151.174 5.88151 151.293 5.63518 151.293 5.32948C151.293 4.97759 151.17 4.71587 150.922 4.54433C150.673 4.37278 150.277 4.28701 149.727 4.28701H148.54V6.34996H148.542ZM148.542 9.92604H149.866C150.048 9.92604 150.244 9.91504 150.453 9.89085C150.662 9.86886 150.856 9.81387 151.029 9.7303C151.203 9.64673 151.348 9.52576 151.463 9.36961C151.577 9.21346 151.634 9.00013 151.634 8.73401C151.634 8.30735 151.496 8.00824 151.218 7.84109C150.941 7.67394 150.508 7.58817 149.923 7.58817H148.542V9.92604Z" fill="#04676A"/>
<path d="M154.195 3.05099H155.634V9.85566H159.071V11.1621H154.195V3.05099Z" fill="#04676A"/>
<path d="M159.811 3.05099H165.166V4.35739H161.249V6.34996H164.959V7.65635H161.249V9.85566H165.37V11.1621H159.811V3.05099Z" fill="#04676A"/>
<path d="M88.1941 16.1259C88.6142 15.4177 88.9023 14.6348 89.0386 13.8298L89.1156 13.2228L89.131 12.6136C89.131 12.4113 89.1024 12.2133 89.0936 12.0154C89.076 11.8175 89.0276 11.6239 88.9969 11.4282C88.6714 9.87546 87.6971 8.51629 86.4325 7.70035C85.1767 6.87121 83.6327 6.60069 82.2978 6.82942C80.954 7.05815 79.8059 7.82131 79.0736 8.77801C78.6997 9.25306 78.438 9.78089 78.2642 10.3087C78.0971 10.8388 77.9937 11.3688 78.0047 11.879C77.9915 12.8863 78.3016 13.755 78.7239 14.4016C79.1373 15.0592 79.6498 15.4925 80.0787 15.7762C80.9452 16.3348 81.9789 16.5878 82.9422 16.513C83.8923 16.4338 84.7808 16.0335 85.4296 15.4177C86.7646 14.1971 87.0505 12.2881 86.5666 11.0037C86.3313 10.3461 85.9486 9.80509 85.5373 9.39821C85.1195 8.99794 84.6796 8.72083 84.2925 8.54048C83.5162 8.1776 82.9905 8.10722 82.9905 7.94447C82.9905 7.87409 83.1181 7.80811 83.3776 7.75093C83.6371 7.70035 84.0286 7.68495 84.5323 7.77073C85.0337 7.8565 85.6407 8.07643 86.2609 8.4943C86.8701 8.91876 87.4859 9.55876 87.9126 10.4275C88.1215 10.863 88.2755 11.3534 88.3679 11.879C88.4382 12.4091 88.4536 12.9589 88.3723 13.5263C88.2843 14.0915 88.1259 14.6722 87.8576 15.2242C87.5871 15.7762 87.2242 16.304 86.769 16.7725C86.5556 16.9946 86.3203 17.2014 86.0652 17.3905H87.2242C87.5981 17.01 87.9236 16.5856 88.1941 16.1259ZM84.4355 11.9098C84.6664 13.0073 83.9626 14.0827 82.8652 14.3137C81.7677 14.5446 80.6923 13.8408 80.4613 12.7434C80.2304 11.6459 80.9342 10.5704 82.0316 10.3395C83.1291 10.1108 84.2046 10.8124 84.4355 11.9098Z" fill="#04676A"/>
<path d="M78.299 5.02157C79.2513 4.51793 80.1442 4.24302 80.8854 4.09347C82.3787 3.80976 83.2342 3.96591 83.2298 4.01429C83.232 4.10886 82.3853 4.09786 80.9865 4.50034C80.2915 4.70707 79.4646 5.03257 78.6069 5.55821C77.7535 6.08384 76.8738 6.82941 76.1964 7.84769C75.5058 8.85497 75.1166 10.1636 75.0924 11.5711C75.055 12.9853 75.3849 14.505 76.1326 15.8488C76.4383 16.4074 76.8298 16.9286 77.2851 17.3927H78.7762C78.189 16.9814 77.527 16.3788 76.9816 15.5057C76.3768 14.5666 75.9347 13.2778 75.9721 11.846C75.9963 10.4385 76.4691 8.86377 77.5138 7.55738C78.5431 6.25319 80.1398 5.22831 81.9872 4.9468C82.9087 4.80384 83.8566 4.84123 84.7891 5.04357C85.7216 5.2481 86.6322 5.63518 87.4459 6.18721C88.4158 6.8404 89.2427 7.73772 89.8321 8.7846V4.22323C89.8321 3.30831 89.0844 2.56055 88.1695 2.56055H76.6627C75.7478 2.56055 75 3.30831 75 4.22323V8.22377C75.1584 7.92466 75.3365 7.64315 75.5322 7.38583C76.346 6.28398 77.3533 5.52742 78.299 5.02157Z" fill="#04676A"/>
<path d="M82.5291 14.356C83.6493 14.3105 84.5206 13.3655 84.475 12.2453C84.4295 11.1251 83.4845 10.2538 82.3643 10.2994C81.2441 10.3449 80.3728 11.2899 80.4184 12.4101C80.4639 13.5303 81.4089 14.4016 82.5291 14.356Z" fill="#97C93D"/>
<path d="M76.6627 17.3927H77.2851C76.8276 16.9286 76.4383 16.4074 76.1326 15.8488C75.3849 14.505 75.055 12.9853 75.0924 11.5733C75.1144 10.1657 75.5058 8.85715 76.1964 7.84767C76.8738 6.82938 77.7535 6.08382 78.6069 5.55818C79.4646 5.03255 80.2915 4.70705 80.9865 4.50031C82.3853 4.09784 83.2342 4.10884 83.2298 4.01427C83.2364 3.96808 82.3787 3.80973 80.8854 4.09344C80.1442 4.243 79.2513 4.51791 78.299 5.02155C77.3533 5.52519 76.346 6.28176 75.5322 7.38581C75.3365 7.64533 75.1584 7.92684 75 8.22375V15.7278C75 16.6427 75.7478 17.3927 76.6627 17.3927Z" fill="white"/>
<path d="M87.4448 6.18277C86.631 5.63074 85.7205 5.24366 84.788 5.03913C83.8555 4.83679 82.9098 4.7994 81.9861 4.94236C80.1386 5.22607 78.5419 6.25095 77.5127 7.55294C76.468 8.85933 75.9951 10.434 75.971 11.8416C75.9336 13.2733 76.3756 14.5621 76.9804 15.5012C77.5237 16.3744 78.1879 16.977 78.7751 17.3883H86.0636C86.3187 17.1991 86.554 16.9924 86.7674 16.7702C87.2204 16.3018 87.5855 15.7718 87.856 15.2219C88.1265 14.6677 88.2849 14.0871 88.3707 13.5241C88.452 12.9566 88.4366 12.4068 88.3663 11.8768C88.2761 11.3511 88.1199 10.8607 87.911 10.4252C87.4821 9.55651 86.8685 8.91431 86.2593 8.49204C85.6413 8.07417 85.0343 7.85424 84.5307 7.76847C84.027 7.6827 83.6334 7.69809 83.376 7.74868C83.1165 7.80586 82.989 7.87184 82.989 7.94222C82.9868 8.10277 83.5146 8.17314 84.2909 8.53823C84.678 8.71857 85.1157 8.99569 85.5358 9.39596C85.947 9.80063 86.3297 10.3439 86.565 11.0015C87.0489 12.2859 86.763 14.1927 85.428 15.4155C84.7792 16.0313 83.8929 16.4316 82.9406 16.5107C81.9773 16.5877 80.9436 16.3326 80.0771 15.774C79.6482 15.4924 79.1358 15.057 78.7223 14.3994C78.3022 13.7528 77.9899 12.8841 78.0031 11.8768C77.9921 11.3665 78.0955 10.8365 78.2626 10.3065C78.4342 9.77864 78.6981 9.24861 79.072 8.77575C79.8066 7.82125 80.9524 7.05589 82.2962 6.82717C83.6334 6.59844 85.1773 6.86895 86.4309 7.69809C87.6955 8.51404 88.6698 9.87321 88.9953 11.4259C89.0239 11.6217 89.0744 11.8152 89.092 12.0131C89.103 12.2133 89.1294 12.4112 89.1294 12.6114L89.114 13.2206L89.0371 13.8276C88.8985 14.6325 88.6126 15.4155 88.1925 16.1236C87.922 16.5833 87.5965 17.0078 87.2248 17.3883H88.1683C89.0832 17.3883 89.831 16.6405 89.831 15.7256V8.77575C89.2394 7.73548 88.4147 6.83596 87.4448 6.18277Z" fill="white"/>
</svg>
